<?xml version="1.0" encoding="UTF-8"?>
<svg id="Capa_1" data-name="Capa 1" xmlns="http://www.w3.org/2000/svg" viewBox="0 0 100 100">
  <defs>
    <style>
      .cls-1 {
        fill: #010101;
        stroke-width: 0px;
      }
    </style>
  </defs>
  <path class="cls-1" d="m50,98.01h-.05c-1.88,0-3.72-.55-5.3-1.59l-.2-.15c-.3-.2-.55-.4-.84-.59-8.13-5.45-19.92-15.36-28.09-25.27C8.68,62.14-.29,49.31.6,33.55c.5-8.67,3.96-16.7,9.81-22.59C16.61,4.71,24.88,1.54,33.75,2.04c5.65.35,11.2,2.63,16.25,6.69,5-4.06,10.6-6.34,16.25-6.69,8.87-.5,17.14,2.68,23.34,8.92,5.8,5.85,9.27,13.87,9.81,22.54v.05c.89,15.71-8.08,28.54-14.91,36.81-8.18,9.91-19.97,19.82-28.09,25.27-.3.2-.55.45-.84.59l-.15.1c-1.68,1.14-3.52,1.68-5.4,1.68ZM31.92,9.47c-6.19,0-11.89,2.38-16.25,6.74-4.56,4.56-7.23,10.9-7.63,17.79-.74,13.13,7.18,24.38,13.23,31.71,7.68,9.31,19.17,18.93,26.61,23.93.1.05.2.15.3.25s.2.15.3.2l.2.15c.4.25.84.4,1.29.4h.05c.45,0,.89-.15,1.29-.4l.15-.1c.1-.05.2-.15.3-.2.1-.1.2-.15.3-.25,7.43-5,18.93-14.62,26.66-23.93,6.04-7.33,13.97-18.58,13.23-31.71v-.05c-.4-6.84-3.12-13.13-7.63-17.69-4.66-4.71-10.95-7.09-17.64-6.74-4.91.3-9.66,2.58-14.07,6.89-1.44,1.39-3.72,1.39-5.15,0-4.46-4.26-9.17-6.59-14.07-6.89-.5-.1-.99-.1-1.44-.1Z"/>
</svg>