<?xml version="1.0" encoding="UTF-8"?>
<svg id="Capa_1" data-name="Capa 1" xmlns="http://www.w3.org/2000/svg" viewBox="0 0 100 100">
  <defs>
    <style>
      .cls-1 {
        fill: #010101;
        stroke-width: 0px;
      }
    </style>
  </defs>
  <path class="cls-1" d="m76.81,22.62c-6.31-7.68-15.45-15.36-21.76-19.61-.24-.2-.44-.34-.68-.49l-.15-.1c-1.32-.88-2.89-1.32-4.5-1.32h-.05c-1.61,0-3.18.44-4.55,1.32l-.15.1c-.24.15-.44.29-.68.49-6.31,4.25-15.45,11.93-21.76,19.61-5.33,6.5-12.32,16.53-11.64,28.95v.05c.39,6.85,3.18,13.2,7.78,17.85,4.6,4.65,10.61,7.14,17.12,7.14.49,0,.98-.05,1.37-.05,3.03-.17,6.02-1.05,8.85-2.56v17.77h-17.34c-2.01,0-3.67,1.66-3.67,3.67s1.66,3.67,3.67,3.67h42.01c2,0,3.67-1.66,3.67-3.67s-1.66-3.67-3.67-3.67h-17.34v-17.73c2.81,1.48,5.75,2.36,8.75,2.53,7.04.39,13.64-2.1,18.58-7.09,4.6-4.65,7.38-11,7.78-17.9.73-12.42-6.31-22.45-11.64-28.95Zm4.4,28.51c-.29,5.09-2.3,9.78-5.67,13.15-3.42,3.47-8.02,5.23-12.96,4.94-3.57-.2-7.04-1.91-10.32-5.09-.72-.69-1.64-1.03-2.57-1.02,0,0-.01,0-.02,0-.16,0-.31.03-.47.05-.06,0-.12,0-.18.02-.79.14-1.49.55-2.02,1.12-3.23,3.07-6.64,4.74-10.15,4.93-4.94.29-9.54-1.47-12.96-4.94-3.37-3.37-5.38-8.02-5.67-13.15-.54-9.83,5.43-18.34,9.98-23.82,5.87-7.09,14.67-14.43,20.34-18.24.1-.1.2-.15.29-.24.05-.05.1-.05.15-.1l.1-.1c.2-.15.39-.2.59-.2h.1c.2,0,.39.05.54.15l.15.1s.1.05.15.1c.1.1.2.2.29.24,5.67,3.81,14.48,11.15,20.34,18.24,4.55,5.53,10.51,14.03,9.98,23.86Z"/>
</svg>